<svg version="1" xmlns="http://www.w3.org/2000/svg" width="160" height="160" viewBox="0 0 120.000000 120.000000"><path d="M48.1 8.4c-1.4 1.7-.5 3.7 6.3 13.4C62 32.5 64.6 42.5 62.6 53l-.7 3.5 4-4.4c11.4-12.3 12.5-26.7 3-37.6-1.9-2.1-5.2-4.6-7.4-5.6-4.8-2.2-11.8-2.5-13.4-.5zM91.2 20.3c-.5.6-2 4.8-3.2 9.2C84 44 77.5 53.6 68.6 58.3l-4.1 2.1 3 .6c9.2 1.8 20.7-1.4 26.9-7.5 9.8-9.6 9.7-28.1 0-33.3-1.7-.9-2.4-.9-3.2.1zM22.1 25.3C17.8 26.7 11 33 11 35.8s1.4 3.5 7.4 3.8c18.7.9 27.2 3.9 35.6 12.6l3.2 3.3-.6-4C55 39.6 49.8 31.1 41.5 26.7c-4.6-2.3-14.1-3-19.4-1.4zM23.3 52.3C13.8 55.9 6.7 65.8 7.1 74.8c.3 5 2.3 9.2 4.4 9.2.7 0 4.3-3.4 8-7.5 9.9-11.1 18.7-16.4 28.3-16.9 2.3-.1 4.4-.5 4.7-.8.4-.3-2.4-2.1-6.2-3.9-7.6-3.7-17.4-4.8-23-2.6zM105.7 62.5c-1.6.8-6.1 2.6-10 4.1-8.8 3.2-20.9 3.7-27.1 1-5.5-2.3-6-2-3.5 1.6 3.4 5.1 10.2 11.2 14.5 13.3 5.3 2.5 13.7 2.8 19.2.6 8.4-3.3 15-12.3 14-19.1-.4-3-3.2-3.6-7.1-1.5zM46.2 67.2c-7.6 3.8-12.8 8.7-15.4 14.5-1.9 4.4-3 12.9-1.9 14.8.3.5.6 1.5.7 2.1.7 4.8 8.4 14.3 11.7 14.5.7 0 2 .2 3 .4 3 .6 3.6-2.5 2-11.5-1.7-9.4-1.3-21.7.8-26.5.7-1.7 2.4-4.7 3.8-6.8 1.3-2 2.2-3.9 2-4.2-.3-.2-3.2 1-6.7 2.7zM56.7 69.8c-.3 1.5-.8 3.8-1.1 5.2-1.3 4.9-.9 15.5.7 19.1 4.1 9.4 12.5 15.2 22.1 15.3 8 0 15.2-4 13.1-7.4-.3-.5-4.5-3.1-9.3-5.9-13-7.4-20.8-16-22.7-24.8-.9-4.3-2.1-5-2.8-1.5z"/></svg>